# xmcd
#
# Track frame offsets: 
#        150
#        16240
#        34721
#        60386
#        78319
#        109157
#        125935
#        152763
#        171920
#        194766
#        211293
#        229880
#        237846
#
# Disc length: 4371 seconds
#
# Revision: 2
# Processed by: cddbd v1.5.2PL0 Copyright (c) Steve Scherf et al.
# Submitted via: ExactAudioCopy v1.0b2
#
DISCID=af11110d
DTITLE=Jimi Hendrix - People, Hell and Angels
DYEAR=1970
DGENRE=Rock
TTITLE0=Earth Blues
TTITLE1=Somewhere
TTITLE2=Hear My Train A Comin'
TTITLE3=Bleeding Heat
TTITLE4=Let Me Move You
TTITLE5=Izabella
TTITLE6=Eazy Blues
TTITLE7=Crash Landing
TTITLE8=Inside Out
TTITLE9=Hey Gypsy Boy
TTITLE10=Mojo Man
TTITLE11=Villanova Junction Blues
TTITLE12=Ezy Ryder - MLK Jam [Captain Coconut]
EXTD=
EXTT0=
EXTT1=
EXTT2=
EXTT3=
EXTT4=
EXTT5=
EXTT6=
EXTT7=
EXTT8=
EXTT9=
EXTT10=
EXTT11=
EXTT12=
PLAYORDER=
